ffmpeg started on 2025-06-27 at 10:29:24
Report written to "D:\Convert\FFMetrics\reports\ssim_report-6.txt"
Log level: 32
Command line:
ffmpeg -hide_banner -nostdin -i "G:\\\xc0\xed\xe8\xec\xe5\\[\xd2\xee\xef-4]\\\xd2\xee\xea\xe8\xe9\xf1\xea\xe8\xe9 \xc3\xf3\xeb\xfc\\\xd2\xc2-4\\Tokyo_Ghoul_Re_[20]_[AniLibria_TV]_[HDTVRip_720p]_HEVC.mkv" -i "G:\\\xc0\xed\xe8\xec\xe5\\[\xd2\xee\xef-4]\\\xd2\xee\xea\xe8\xe9\xf1\xea\xe8\xe9 \xc3\xf3\xeb\xfc\\\xd2\xc2-4\\Tokyo_Ghoul_Re_[20]_[AniLibria_TV]_[HDTVRip_720p].mkv" -lavfi "[0:v]settb=AVTB,setpts=PTS-STARTPTS,format=pix_fmts=yuv420p10,fps=24000/1001,scale=1280:720:flags=bicubic[main];[1:v]settb=AVTB,setpts=PTS-STARTPTS,format=pix_fmts=yuv420p,fps=24000/1001,scale=1280:720:flags=bicubic[ref];[main][ref]ssim=eof_action=endall:stats_file='D\\:/Convert/FFMetrics/logs/ssim_logfile-6.txt'" -f null -
Input #0, matroska,webm, from 'G:\Аниме\[Топ-4]\Токийский Гуль\ТВ-4\Tokyo_Ghoul_Re_[20]_[AniLibria_TV]_[HDTVRip_720p]_HEVC.mkv':
  Metadata:
    ENCODER         : Lavf61.7.100
  Duration: 00:24:30.10, start: -0.021000, bitrate: 672 kb/s
  Stream #0:0(jpn): Video: hevc (Main 10), yuv420p10le(tv, bt709, progressive), 1280x720 [SAR 1:1 DAR 16:9], 23.98 fps, 23.98 tbr, 1k tbn (default)
      Metadata:
        ENCODER         : Lavc61.19.100 libx265
        BPS             : 473704
        DURATION        : 00:24:30.010708333
        NUMBER_OF_FRAMES: 35245
        NUMBER_OF_BYTES : 87043802
        _STATISTICS_WRITING_APP: mkvpropedit v66.0.0 ('Josie') 64-bit
        _STATISTICS_WRITING_DATE_UTC: 2025-06-26 16:14:11
        _STATISTICS_TAGS: BPS DURATION NUMBER_OF_FRAMES NUMBER_OF_BYTES
  Stream #0:1(rus): Audio: aac (LC), 48000 Hz, stereo, fltp (default) (forced)
      Metadata:
        title           : AniLibria.TV
        ENCODER         : Lavc61.19.100 aac
        BPS             : 194400
        DURATION        : 00:24:30.079000000
        NUMBER_OF_FRAMES: 68911
        NUMBER_OF_BYTES : 35723092
        _STATISTICS_WRITING_APP: mkvpropedit v66.0.0 ('Josie') 64-bit
        _STATISTICS_WRITING_DATE_UTC: 2025-06-26 16:14:11
        _STATISTICS_TAGS: BPS DURATION NUMBER_OF_FRAMES NUMBER_OF_BYTES
  Stream #0:2(rus): Subtitle: ass (ssa) (default) (forced)
      Metadata:
        title           : Надписи
        BPS             : 20
        DURATION        : 00:22:57.550000000
        NUMBER_OF_FRAMES: 22
        NUMBER_OF_BYTES : 3483
        _STATISTICS_WRITING_APP: mkvpropedit v66.0.0 ('Josie') 64-bit
        _STATISTICS_WRITING_DATE_UTC: 2025-06-26 16:14:11
        _STATISTICS_TAGS: BPS DURATION NUMBER_OF_FRAMES NUMBER_OF_BYTES
  Stream #0:3(rus): Subtitle: ass (ssa)
      Metadata:
        title           : Полные
        BPS             : 79
        DURATION        : 00:23:52.360000000
        NUMBER_OF_FRAMES: 211
        NUMBER_OF_BYTES : 14155
        _STATISTICS_WRITING_APP: mkvpropedit v66.0.0 ('Josie') 64-bit
        _STATISTICS_WRITING_DATE_UTC: 2025-06-26 16:14:11
        _STATISTICS_TAGS: BPS DURATION NUMBER_OF_FRAMES NUMBER_OF_BYTES
[matroska,webm @ 0000019feaff6180] Could not find codec parameters for stream 18 (Attachment: none): unknown codec
Consider increasing the value for the 'analyzeduration' (0) and 'probesize' (5000000) options
Input #1, matroska,webm, from 'G:\Аниме\[Топ-4]\Токийский Гуль\ТВ-4\Tokyo_Ghoul_Re_[20]_[AniLibria_TV]_[HDTVRip_720p].mkv':
  Metadata:
    encoder         : libebml v1.4.2 + libmatroska v1.6.4
    creation_time   : 2024-12-27T09:49:57.000000Z
  Duration: 00:24:30.08, start: 0.000000, bitrate: 2096 kb/s
  Stream #1:0(jpn): Video: h264 (Main), yuv420p(tv, bt709, progressive), 1280x720, SAR 1:1 DAR 16:9, 23.98 fps, 23.98 tbr, 1k tbn (default)
      Metadata:
        BPS             : 1890059
        DURATION        : 00:24:30.011000000
        NUMBER_OF_FRAMES: 35245
        NUMBER_OF_BYTES : 347301102
        _STATISTICS_WRITING_APP: mkvmerge v66.0.0 ('Josie') 64-bit
        _STATISTICS_WRITING_DATE_UTC: 2024-12-27 09:49:57
        _STATISTICS_TAGS: BPS DURATION NUMBER_OF_FRAMES NUMBER_OF_BYTES
  Stream #1:1(rus): Audio: aac (LC), 48000 Hz, stereo, fltp (default) (forced)
      Metadata:
        title           : AniLibria.TV
        BPS             : 192092
        DURATION        : 00:24:30.079000000
        NUMBER_OF_FRAMES: 68910
        NUMBER_OF_BYTES : 35298928
        _STATISTICS_WRITING_APP: mkvmerge v66.0.0 ('Josie') 64-bit
        _STATISTICS_WRITING_DATE_UTC: 2024-12-27 09:49:57
        _STATISTICS_TAGS: BPS DURATION NUMBER_OF_FRAMES NUMBER_OF_BYTES
  Stream #1:2(rus): Subtitle: ass (ssa) (default) (forced)
      Metadata:
        title           : Надписи
        BPS             : 20
        DURATION        : 00:22:57.550000000
        NUMBER_OF_FRAMES: 22
        NUMBER_OF_BYTES : 3483
        _STATISTICS_WRITING_APP: mkvmerge v66.0.0 ('Josie') 64-bit
        _STATISTICS_WRITING_DATE_UTC: 2024-12-27 09:49:57
        _STATISTICS_TAGS: BPS DURATION NUMBER_OF_FRAMES NUMBER_OF_BYTES
  Stream #1:3(rus): Subtitle: ass (ssa)
      Metadata:
        title           : Полные
        BPS             : 79
        DURATION        : 00:23:52.360000000
        NUMBER_OF_FRAMES: 211
        NUMBER_OF_BYTES : 14155
        _STATISTICS_WRITING_APP: mkvmerge v66.0.0 ('Josie') 64-bit
        _STATISTICS_WRITING_DATE_UTC: 2024-12-27 09:49:57
        _STATISTICS_TAGS: BPS DURATION NUMBER_OF_FRAMES NUMBER_OF_BYTES
  Stream #1:4: Attachment: ttf
      Metadata:
        filename        : 10322__2.ttf
        mimetype        : application/x-truetype-font
  Stream #1:5: Attachment: ttf
      Metadata:
        filename        : 10352__0.ttf
        mimetype        : application/x-truetype-font
  Stream #1:6: Attachment: ttf
      Metadata:
        filename        : Aero Matics Display Bold Italic.ttf
        mimetype        : application/x-truetype-font
  Stream #1:7: Attachment: ttf
      Metadata:
        filename        : Aero Matics Display Bold.ttf
        mimetype        : application/x-truetype-font
  Stream #1:8: Attachment: ttf
      Metadata:
        filename        : Aero Matics Display Italic.ttf
        mimetype        : application/x-truetype-font
  Stream #1:9: Attachment: ttf
      Metadata:
        filename        : Aero Matics Display Light Italic.ttf
        mimetype        : application/x-truetype-font
  Stream #1:10: Attachment: ttf
      Metadata:
        filename        : Aero Matics Display Light.ttf
        mimetype        : application/x-truetype-font
  Stream #1:11: Attachment: ttf
      Metadata:
        filename        : Aero_Matics_Display_Regular.ttf
        mimetype        : application/x-truetype-font
  Stream #1:12: Attachment: ttf
      Metadata:
        filename        : BenchNine-Regular.ttf
        mimetype        : application/x-truetype-font
  Stream #1:13: Attachment: ttf
      Metadata:
        filename        : ObelixPro (Regular).ttf
        mimetype        : application/x-truetype-font
  Stream #1:14: Attachment: ttf
      Metadata:
        filename        : OHCRBRG.TTF
        mimetype        : application/x-truetype-font
  Stream #1:15: Attachment: ttf
      Metadata:
        filename        : OpenSanA.ttf
        mimetype        : application/x-truetype-font
  Stream #1:16: Attachment: ttf
      Metadata:
        filename        : Passing Notes.ttf
        mimetype        : application/x-truetype-font
  Stream #1:17: Attachment: ttf
      Metadata:
        filename        : REDOCTOB.otf
        mimetype        : application/x-truetype-font
  Stream #1:18: Attachment: none
      Metadata:
        filename        : simsun_0.ttc
        mimetype        : application/octet-stream
  Stream #1:19: Attachment: ttf
      Metadata:
        filename        : Snowstorm.ttf
        mimetype        : application/x-truetype-font
  Stream #1:20: Attachment: ttf
      Metadata:
        filename        : TEMPSITC.TTF
        mimetype        : application/x-truetype-font
  Stream #1:21: Attachment: ttf
      Metadata:
        filename        : TrajanPro3-Bold.otf
        mimetype        : application/x-truetype-font
  Stream #1:22: Attachment: ttf
      Metadata:
        filename        : TrajanPro3-Regular.otf
        mimetype        : application/x-truetype-font
  Stream #1:23: Attachment: ttf
      Metadata:
        filename        : v_BloodyMurder BB_v1.0.ttf
        mimetype        : application/x-truetype-font
  Stream #1:24: Attachment: ttf
      Metadata:
        filename        : v_CCTimSale_v1.11.ttf
        mimetype        : application/x-truetype-font
  Stream #1:25: Attachment: ttf
      Metadata:
        filename        : v_HolyMackerelli_v1.9.ttf
        mimetype        : application/x-truetype-font
  Stream #1:26: Attachment: ttf
      Metadata:
        filename        : v_StraightJacketBB_v1.1.ttf
        mimetype        : application/x-truetype-font
  Stream #1:27: Attachment: ttf
      Metadata:
        filename        : XENI.TTF
        mimetype        : application/x-truetype-font
Stream mapping:
  Stream #0:0 (hevc) -> settb:default
  Stream #1:0 (h264) -> settb:default
  ssim:default -> Stream #0:0 (wrapped_avframe)
  Stream #0:1 -> #0:1 (aac (native) -> pcm_s16le (native))
Output #0, null, to 'pipe:':
  Metadata:
    encoder         : Lavf61.7.100
  Stream #0:0: Video: wrapped_avframe, yuv420p10le(tv, bt709, progressive), 1280x720 [SAR 1:1 DAR 16:9], q=2-31, 200 kb/s, 23.98 fps, 23.98 tbn
      Metadata:
        encoder         : Lavc61.19.100 wrapped_avframe
  Stream #0:1(rus): Audio: pcm_s16le, 48000 Hz, stereo, s16, 1536 kb/s (default) (forced)
      Metadata:
        title           : AniLibria.TV
        _STATISTICS_TAGS: BPS DURATION NUMBER_OF_FRAMES NUMBER_OF_BYTES
        BPS             : 194400
        DURATION        : 00:24:30.079000000
        NUMBER_OF_FRAMES: 68911
        NUMBER_OF_BYTES : 35723092
        _STATISTICS_WRITING_APP: mkvpropedit v66.0.0 ('Josie') 64-bit
        _STATISTICS_WRITING_DATE_UTC: 2025-06-26 16:14:11
        encoder         : Lavc61.19.100 pcm_s16le
frame=  396 fps=0.0 q=-0.0 size=N/A time=00:00:16.51 bitrate=N/A speed=32.5x    frame=  875 fps=844 q=-0.0 size=N/A time=00:00:36.49 bitrate=N/A speed=35.2x    frame= 1383 fps=894 q=-0.0 size=N/A time=00:00:57.68 bitrate=N/A speed=37.3x    frame= 1877 fps=912 q=-0.0 size=N/A time=00:01:18.28 bitrate=N/A speed=  38x    frame= 2309 fps=894 q=-0.0 size=N/A time=00:01:36.30 bitrate=N/A speed=37.3x    frame= 2619 fps=848 q=-0.0 size=N/A time=00:01:49.23 bitrate=N/A speed=35.4x    frame= 3026 fps=838 q=-0.0 size=N/A time=00:02:06.20 bitrate=N/A speed=34.9x    frame= 3473 fps=842 q=-0.0 size=N/A time=00:02:24.85 bitrate=N/A speed=35.1x    frame= 3987 fps=860 q=-0.0 size=N/A time=00:02:46.29 bitrate=N/A speed=35.9x    frame= 4494 fps=871 q=-0.0 size=N/A time=00:03:07.43 bitrate=N/A speed=36.3x    frame= 5095 fps=899 q=-0.0 size=N/A time=00:03:32.50 bitrate=N/A speed=37.5x    frame= 5585 fps=903 q=-0.0 size=N/A time=00:03:52.94 bitrate=N/A speed=37.7x    frame= 6160 fps=919 q=-0.0 size=N/A time=00:04:16.92 bitrate=N/A speed=38.3x    frame= 6703 fps=929 q=-0.0 size=N/A time=00:04:39.57 bitrate=N/A speed=38.7x    frame= 7211 fps=933 q=-0.0 size=N/A time=00:05:00.75 bitrate=N/A speed=38.9x    frame= 7690 fps=932 q=-0.0 size=N/A time=00:05:20.73 bitrate=N/A speed=38.9x    frame= 8119 fps=927 q=-0.0 size=N/A time=00:05:38.62 bitrate=N/A speed=38.7x    frame= 8493 fps=914 q=-0.0 size=N/A time=00:05:54.22 bitrate=N/A speed=38.1x    frame= 8932 fps=912 q=-0.0 size=N/A time=00:06:12.53 bitrate=N/A speed=  38x    frame= 9446 fps=916 q=-0.0 size=N/A time=00:06:33.97 bitrate=N/A speed=38.2x    frame= 9887 fps=914 q=-0.0 size=N/A time=00:06:52.37 bitrate=N/A speed=38.1x    frame=10345 fps=912 q=-0.0 size=N/A time=00:07:11.47 bitrate=N/A speed=  38x    frame=10829 fps=913 q=-0.0 size=N/A time=00:07:31.65 bitrate=N/A speed=38.1x    frame=11209 fps=906 q=-0.0 size=N/A time=00:07:47.50 bitrate=N/A speed=37.8x    frame=11686 fps=907 q=-0.0 size=N/A time=00:08:07.40 bitrate=N/A speed=37.8x    frame=12126 fps=904 q=-0.0 size=N/A time=00:08:25.75 bitrate=N/A speed=37.7x    frame=12519 fps=899 q=-0.0 size=N/A time=00:08:42.14 bitrate=N/A speed=37.5x    frame=12993 fps=901 q=-0.0 size=N/A time=00:09:01.91 bitrate=N/A speed=37.6x    frame=13360 fps=893 q=-0.0 size=N/A time=00:09:17.22 bitrate=N/A speed=37.3x    frame=13854 fps=896 q=-0.0 size=N/A time=00:09:37.82 bitrate=N/A speed=37.4x    frame=14369 fps=899 q=-0.0 size=N/A time=00:09:59.30 bitrate=N/A speed=37.5x    frame=14881 fps=902 q=-0.0 size=N/A time=00:10:20.66 bitrate=N/A speed=37.6x    frame=15387 fps=905 q=-0.0 size=N/A time=00:10:41.76 bitrate=N/A speed=37.7x    frame=15923 fps=908 q=-0.0 size=N/A time=00:11:04.12 bitrate=N/A speed=37.9x    frame=16340 fps=905 q=-0.0 size=N/A time=00:11:21.51 bitrate=N/A speed=37.8x    frame=16744 fps=902 q=-0.0 size=N/A time=00:11:38.36 bitrate=N/A speed=37.6x    frame=17260 fps=905 q=-0.0 size=N/A time=00:11:59.88 bitrate=N/A speed=37.7x    frame=17781 fps=908 q=-0.0 size=N/A time=00:12:21.61 bitrate=N/A speed=37.9x    frame=18355 fps=913 q=-0.0 size=N/A time=00:12:45.55 bitrate=N/A speed=38.1x    frame=18842 fps=914 q=-0.0 size=N/A time=00:13:05.86 bitrate=N/A speed=38.1x    frame=19326 fps=914 q=-0.0 size=N/A time=00:13:26.05 bitrate=N/A speed=38.1x    frame=19748 fps=912 q=-0.0 size=N/A time=00:13:43.65 bitrate=N/A speed=  38x    frame=20177 fps=910 q=-0.0 size=N/A time=00:14:01.54 bitrate=N/A speed=  38x    frame=20523 fps=905 q=-0.0 size=N/A time=00:14:15.98 bitrate=N/A speed=37.7x    frame=21046 fps=907 q=-0.0 size=N/A time=00:14:37.79 bitrate=N/A speed=37.8x    frame=21573 fps=910 q=-0.0 size=N/A time=00:14:59.77 bitrate=N/A speed=37.9x    frame=22039 fps=910 q=-0.0 size=N/A time=00:15:19.20 bitrate=N/A speed=37.9x    frame=22520 fps=910 q=-0.0 size=N/A time=00:15:39.27 bitrate=N/A speed=37.9x    frame=23052 fps=912 q=-0.0 size=N/A time=00:16:01.46 bitrate=N/A speed=  38x    frame=23565 fps=914 q=-0.0 size=N/A time=00:16:22.81 bitrate=N/A speed=38.1x    frame=24154 fps=918 q=-0.0 size=N/A time=00:16:47.42 bitrate=N/A speed=38.3x    frame=24722 fps=922 q=-0.0 size=N/A time=00:17:11.11 bitrate=N/A speed=38.4x    frame=25073 fps=917 q=-0.0 size=N/A time=00:17:25.75 bitrate=N/A speed=38.3x    frame=25533 fps=916 q=-0.0 size=N/A time=00:17:44.93 bitrate=N/A speed=38.2x    frame=26049 fps=918 q=-0.0 size=N/A time=00:18:06.46 bitrate=N/A speed=38.3x    frame=26566 fps=920 q=-0.0 size=N/A time=00:18:28.02 bitrate=N/A speed=38.4x    frame=27087 fps=921 q=-0.0 size=N/A time=00:18:49.75 bitrate=N/A speed=38.4x    frame=27611 fps=923 q=-0.0 size=N/A time=00:19:11.60 bitrate=N/A speed=38.5x    frame=28175 fps=926 q=-0.0 size=N/A time=00:19:35.13 bitrate=N/A speed=38.6x    frame=28770 fps=929 q=-0.0 size=N/A time=00:19:59.94 bitrate=N/A speed=38.8x    frame=29249 fps=930 q=-0.0 size=N/A time=00:20:19.92 bitrate=N/A speed=38.8x    frame=29721 fps=929 q=-0.0 size=N/A time=00:20:39.61 bitrate=N/A speed=38.8x    frame=30141 fps=927 q=-0.0 size=N/A time=00:20:57.13 bitrate=N/A speed=38.7x    frame=30576 fps=926 q=-0.0 size=N/A time=00:21:15.27 bitrate=N/A speed=38.6x    frame=31074 fps=927 q=-0.0 size=N/A time=00:21:36.04 bitrate=N/A speed=38.6x    frame=31552 fps=927 q=-0.0 size=N/A time=00:21:55.98 bitrate=N/A speed=38.7x    frame=31991 fps=926 q=-0.0 size=N/A time=00:22:14.29 bitrate=N/A speed=38.6x    frame=32417 fps=924 q=-0.0 size=N/A time=00:22:32.05 bitrate=N/A speed=38.6x    frame=32855 fps=923 q=-0.0 size=N/A time=00:22:50.32 bitrate=N/A speed=38.5x    frame=33220 fps=920 q=-0.0 size=N/A time=00:23:05.55 bitrate=N/A speed=38.4x    frame=33627 fps=918 q=-0.0 size=N/A time=00:23:22.52 bitrate=N/A speed=38.3x    frame=34038 fps=916 q=-0.0 size=N/A time=00:23:39.66 bitrate=N/A speed=38.2x    frame=34533 fps=917 q=-0.0 size=N/A time=00:24:00.31 bitrate=N/A speed=38.2x    frame=35083 fps=919 q=-0.0 size=N/A time=00:24:23.25 bitrate=N/A speed=38.3x    [Parsed_ssim_10 @ 0000019fec15ea00] SSIM Y:0.990603 (20.269990) U:0.994029 (22.239431) V:0.994117 (22.303804) All:0.991759 (20.840426)
[out#0/null @ 0000019febfdb100] video:15144KiB audio:275644KiB subtitle:0KiB other streams:0KiB global headers:0KiB muxing overhead: unknown
frame=35245 fps=920 q=-0.0 Lsize=N/A time=00:24:30.01 bitrate=N/A speed=38.4x    
